<svg width="45" height="46" viewBox="0 0 45 46" fill="none" xmlns="http://www.w3.org/2000/svg">
<path d="M22.5001 42.1532C24.9629 42.1564 27.402 41.6714 29.6773 40.7261C31.9525 39.7807 34.0191 38.3937 35.7583 36.6446C37.502 34.9002 38.8848 32.8273 39.8273 30.5451C40.7698 28.2629 41.2533 25.8163 41.2501 23.3461C41.2533 20.8758 40.7697 18.4293 39.8272 16.1471C38.8848 13.8649 37.5019 11.792 35.7583 10.0475C34.0191 8.29847 31.9525 6.91142 29.6773 5.96606C27.402 5.02071 24.9629 4.53569 22.5001 4.5389C20.0374 4.53575 17.5983 5.02078 15.323 5.96614C13.0478 6.91149 10.9812 8.29852 9.24201 10.0475C7.49833 11.792 6.11552 13.8649 5.17304 16.1471C4.23056 18.4293 3.747 20.8758 3.75014 23.3461C3.74695 25.8163 4.23049 28.2629 5.17297 30.5451C6.11545 32.8273 7.49829 34.9002 9.24201 36.6446C10.9812 38.3936 13.0478 39.7806 15.323 40.726C17.5983 41.6713 20.0374 42.1564 22.5001 42.1532V42.1532Z" stroke="#424242" stroke-width="3.75" stroke-linejoin="round"/>
<path d="M22.4999 27.6952V23.9338C23.6124 23.9338 24.6999 23.6029 25.625 22.9829C26.55 22.3629 27.271 21.4818 27.6967 20.4508C28.1224 19.4198 28.2338 18.2854 28.0168 17.1909C27.7998 16.0964 27.264 15.0911 26.4774 14.302C25.6907 13.513 24.6884 12.9756 23.5973 12.7579C22.5061 12.5402 21.3751 12.6519 20.3473 13.079C19.3194 13.506 18.4409 14.2292 17.8229 15.157C17.2048 16.0849 16.8749 17.1757 16.8749 18.2916" stroke="#424242" stroke-width="3.75" stroke-linecap="round" stroke-linejoin="round"/>
<path fill-rule="evenodd" clip-rule="evenodd" d="M22.4998 36.1585C23.1214 36.1585 23.7175 35.9108 24.157 35.4699C24.5966 35.029 24.8435 34.4311 24.8435 33.8076C24.8435 33.1841 24.5966 32.5861 24.157 32.1452C23.7175 31.7043 23.1214 31.4567 22.4998 31.4567C21.8782 31.4567 21.282 31.7043 20.8425 32.1452C20.4029 32.5861 20.156 33.1841 20.156 33.8076C20.156 34.4311 20.4029 35.029 20.8425 35.4699C21.282 35.9108 21.8782 36.1585 22.4998 36.1585V36.1585Z" fill="#424242"/>
</svg>
